<?xml version="1.0" encoding="utf-8"?>
<!-- Generator: Adobe Illustrator 24.1.2, SVG Export Plug-In . SVG Version: 6.00 Build 0)  -->
<svg version="1.1" id="Layer_1" xmlns="http://www.w3.org/2000/svg" xmlns:xlink="http://www.w3.org/1999/xlink" x="0px" y="0px"
	 viewBox="0 0 284.2 344.28" style="enable-background:new 0 0 284.2 344.28;" xml:space="preserve">
<style type="text/css">
	.st0{fill:url(#SVGID_1_);}
	.st1{fill:url(#SVGID_2_);}
	.st2{fill:url(#SVGID_3_);}
	.st3{fill:url(#SVGID_4_);}
	.st4{fill:url(#SVGID_5_);}
	.st5{fill:url(#SVGID_6_);}
	.st6{fill:url(#SVGID_7_);}
	.st7{fill:url(#SVGID_8_);}
	.st8{fill:url(#SVGID_9_);}
	.st9{fill:url(#SVGID_10_);}
	.st10{fill:url(#SVGID_11_);}
	.st11{fill:url(#SVGID_12_);}
	.st12{fill:url(#SVGID_13_);}
	.st13{fill:url(#SVGID_14_);}
	.st14{fill:url(#SVGID_15_);}
	.st15{fill:url(#SVGID_16_);}
	.st16{fill:url(#SVGID_17_);}
	.st17{fill:url(#SVGID_18_);}
	.st18{fill:url(#SVGID_19_);}
	.st19{fill:url(#SVGID_20_);}
	.st20{fill:url(#SVGID_21_);}
	.st21{fill:url(#SVGID_22_);}
	.st22{fill:url(#SVGID_23_);}
	.st23{fill:url(#SVGID_24_);}
	.st24{fill:url(#SVGID_25_);}
	.st25{fill:url(#SVGID_26_);}
	.st26{fill:url(#SVGID_27_);}
	.st27{fill:url(#SVGID_28_);}
	.st28{fill:url(#SVGID_29_);}
	.st29{fill:url(#SVGID_30_);}
</style>
<g>
	<linearGradient id="SVGID_1_" gradientUnits="userSpaceOnUse" x1="5.2135" y1="129.2983" x2="283.6594" y2="129.2983">
		<stop  offset="0" style="stop-color:#183E72"/>
		<stop  offset="0.5729" style="stop-color:#2D78AC"/>
		<stop  offset="1" style="stop-color:#4EB0DF"/>
	</linearGradient>
	<path class="st0" d="M273.27,129.3v-18l-2.08-5.28H259.5l-2.08,5.28c0-0.33-0.07,10.65-0.12,17.67l-0.12,0.32h-13.36l-0.37-0.34
		v-23.17l-2.44-4.78h-11.29l-2.09,5.27v23.02h-13.12v-16.08l-2.08-5.28h-11.69l-2.08,5.28c0-0.3-0.06,9.1-0.11,16.08h-9.64
		c0,0-3.66,35.99,27.7,47.62c0,0-23.63,43.99-73.69,49.53c0,0-80.22,6.77-103-76.95c0,0-22.16-61.56,49.25-107.12
		c0,0,54.17-32.01,102.81,12.31l-97.88,70.8l-2.41,44.16L240.41,58.11c0,0-30.71-53.39-97.96-57.35c0,0-61.32-10.88-109.78,49.45
		c0,0-51.85,58.65-13.06,139.91c0,0,48.63,90.5,147.13,63.41c0,0,59.05-11.58,86.75-76.55c0,0,32.58-9.21,30.02-47.63L273.27,129.3z
		"/>
	<g>
		<linearGradient id="SVGID_2_" gradientUnits="userSpaceOnUse" x1="296.3399" y1="292.3968" x2="-3.3901" y2="296.2395">
			<stop  offset="0" style="stop-color:#183E72"/>
			<stop  offset="1" style="stop-color:#4EB0DF"/>
		</linearGradient>
		<path class="st1" d="M14.33,297.96H5.47v5.72h9.9v4.47H0v-24.09h14.87v4.47h-9.4v5h8.86V297.96z"/>
		<linearGradient id="SVGID_3_" gradientUnits="userSpaceOnUse" x1="296.3838" y1="295.8221" x2="-3.3462" y2="299.6648">
			<stop  offset="0" style="stop-color:#183E72"/>
			<stop  offset="1" style="stop-color:#4EB0DF"/>
		</linearGradient>
		<path class="st2" d="M18.91,296.24c0-2.18-0.07-4.04-0.14-5.58h4.72l0.25,2.39h0.11c0.71-1.11,2.5-2.79,5.4-2.79
			c3.57,0,6.26,2.36,6.26,7.51v10.37h-5.43v-9.69c0-2.25-0.79-3.79-2.75-3.79c-1.5,0-2.39,1.04-2.75,2.04
			c-0.14,0.32-0.21,0.86-0.21,1.36v10.08h-5.43V296.24z"/>
		<linearGradient id="SVGID_4_" gradientUnits="userSpaceOnUse" x1="296.3881" y1="296.1581" x2="-3.3419" y2="300.0008">
			<stop  offset="0" style="stop-color:#183E72"/>
			<stop  offset="1" style="stop-color:#4EB0DF"/>
		</linearGradient>
		<path class="st3" d="M43.22,290.66l2.36,8.11c0.43,1.47,0.75,2.86,1,4.25h0.11c0.29-1.43,0.57-2.75,0.96-4.25l2.25-8.11h5.72
			l-6.51,17.48h-5.43l-6.36-17.48H43.22z"/>
		<linearGradient id="SVGID_5_" gradientUnits="userSpaceOnUse" x1="296.3424" y1="292.5953" x2="-3.3876" y2="296.438">
			<stop  offset="0" style="stop-color:#183E72"/>
			<stop  offset="1" style="stop-color:#4EB0DF"/>
		</linearGradient>
		<path class="st4" d="M63.73,285.8c0,1.5-1.14,2.72-2.93,2.72c-1.72,0-2.86-1.22-2.82-2.72c-0.04-1.57,1.11-2.75,2.86-2.75
			S63.7,284.23,63.73,285.8z M58.12,308.14v-17.48h5.43v17.48H58.12z"/>
		<linearGradient id="SVGID_6_" gradientUnits="userSpaceOnUse" x1="296.3909" y1="296.3741" x2="-3.3391" y2="300.2168">
			<stop  offset="0" style="stop-color:#183E72"/>
			<stop  offset="1" style="stop-color:#4EB0DF"/>
		</linearGradient>
		<path class="st5" d="M67.92,296.42c0-2.57-0.07-4.25-0.14-5.75h4.68l0.18,3.22h0.14c0.89-2.54,3.04-3.61,4.72-3.61
			c0.5,0,0.75,0,1.14,0.07v5.11c-0.39-0.07-0.86-0.14-1.47-0.14c-2,0-3.36,1.07-3.72,2.75c-0.07,0.36-0.11,0.79-0.11,1.22v8.86
			h-5.43V296.42z"/>
		<linearGradient id="SVGID_7_" gradientUnits="userSpaceOnUse" x1="296.3957" y1="296.75" x2="-3.3343" y2="300.5927">
			<stop  offset="0" style="stop-color:#183E72"/>
			<stop  offset="1" style="stop-color:#4EB0DF"/>
		</linearGradient>
		<path class="st6" d="M98.48,299.21c0,6.4-4.54,9.33-9.22,9.33c-5.11,0-9.04-3.36-9.04-9.01c0-5.65,3.72-9.26,9.33-9.26
			C94.9,290.27,98.48,293.95,98.48,299.21z M85.82,299.39c0,3,1.25,5.25,3.57,5.25c2.11,0,3.47-2.11,3.47-5.25
			c0-2.61-1-5.25-3.47-5.25C86.79,294.13,85.82,296.81,85.82,299.39z"/>
		<linearGradient id="SVGID_8_" gradientUnits="userSpaceOnUse" x1="296.3578" y1="293.797" x2="-3.3722" y2="297.6397">
			<stop  offset="0" style="stop-color:#183E72"/>
			<stop  offset="1" style="stop-color:#4EB0DF"/>
		</linearGradient>
		<path class="st7" d="M123.57,297.96h-8.86v5.72h9.9v4.47h-15.37v-24.09h14.87v4.47h-9.4v5h8.86V297.96z"/>
		<linearGradient id="SVGID_9_" gradientUnits="userSpaceOnUse" x1="296.3519" y1="293.3345" x2="-3.3781" y2="297.1772">
			<stop  offset="0" style="stop-color:#183E72"/>
			<stop  offset="1" style="stop-color:#4EB0DF"/>
		</linearGradient>
		<path class="st8" d="M128.29,282.77h5.43v25.38h-5.43V282.77z"/>
		<linearGradient id="SVGID_10_" gradientUnits="userSpaceOnUse" x1="296.4048" y1="297.4608" x2="-3.3252" y2="301.3035">
			<stop  offset="0" style="stop-color:#183E72"/>
			<stop  offset="1" style="stop-color:#4EB0DF"/>
		</linearGradient>
		<path class="st9" d="M142.3,301.14c0.18,2.25,2.4,3.32,4.93,3.32c1.86,0,3.36-0.25,4.83-0.71l0.72,3.68
			c-1.79,0.71-3.97,1.07-6.33,1.07c-5.93,0-9.33-3.43-9.33-8.9c0-4.43,2.75-9.33,8.83-9.33c5.65,0,7.79,4.4,7.79,8.72
			c0,0.93-0.11,1.75-0.18,2.14H142.3z M148.7,297.42c0-1.32-0.57-3.54-3.07-3.54c-2.29,0-3.22,2.07-3.36,3.54H148.7z"/>
		<linearGradient id="SVGID_11_" gradientUnits="userSpaceOnUse" x1="296.408" y1="297.7094" x2="-3.322" y2="301.5521">
			<stop  offset="0" style="stop-color:#183E72"/>
			<stop  offset="1" style="stop-color:#4EB0DF"/>
		</linearGradient>
		<path class="st10" d="M170.11,307.71c-0.96,0.43-2.79,0.79-4.86,0.79c-5.65,0-9.26-3.43-9.26-8.94c0-5.11,3.5-9.29,10.01-9.29
			c1.43,0,3,0.25,4.15,0.68l-0.86,4.04c-0.64-0.29-1.61-0.54-3.04-0.54c-2.86,0-4.72,2.04-4.68,4.9c0,3.22,2.14,4.9,4.79,4.9
			c1.29,0,2.29-0.21,3.11-0.54L170.11,307.71z"/>
		<linearGradient id="SVGID_12_" gradientUnits="userSpaceOnUse" x1="296.3808" y1="295.588" x2="-3.3492" y2="299.4306">
			<stop  offset="0" style="stop-color:#183E72"/>
			<stop  offset="1" style="stop-color:#4EB0DF"/>
		</linearGradient>
		<path class="st11" d="M179.76,285.66v5h3.9v4h-3.9v6.33c0,2.11,0.5,3.07,2.14,3.07c0.68,0,1.22-0.07,1.61-0.14l0.04,4.11
			c-0.71,0.29-2,0.46-3.54,0.46c-1.75,0-3.22-0.61-4.07-1.5c-1-1.04-1.5-2.72-1.5-5.18v-7.15h-2.32v-4h2.32v-3.79L179.76,285.66z"/>
		<linearGradient id="SVGID_13_" gradientUnits="userSpaceOnUse" x1="296.4104" y1="297.8981" x2="-3.3196" y2="301.7408">
			<stop  offset="0" style="stop-color:#183E72"/>
			<stop  offset="1" style="stop-color:#4EB0DF"/>
		</linearGradient>
		<path class="st12" d="M186.8,296.42c0-2.57-0.07-4.25-0.14-5.75h4.68l0.18,3.22h0.14c0.89-2.54,3.04-3.61,4.72-3.61
			c0.5,0,0.75,0,1.14,0.07v5.11c-0.39-0.07-0.86-0.14-1.47-0.14c-2,0-3.36,1.07-3.72,2.75c-0.07,0.36-0.11,0.79-0.11,1.22v8.86
			h-5.43V296.42z"/>
		<linearGradient id="SVGID_14_" gradientUnits="userSpaceOnUse" x1="296.3658" y1="294.4189" x2="-3.3642" y2="298.2615">
			<stop  offset="0" style="stop-color:#183E72"/>
			<stop  offset="1" style="stop-color:#4EB0DF"/>
		</linearGradient>
		<path class="st13" d="M206,285.8c0,1.5-1.14,2.72-2.93,2.72c-1.72,0-2.86-1.22-2.82-2.72c-0.04-1.57,1.11-2.75,2.86-2.75
			S205.96,284.23,206,285.8z M200.38,308.14v-17.48h5.43v17.48H200.38z"/>
		<linearGradient id="SVGID_15_" gradientUnits="userSpaceOnUse" x1="296.4167" y1="298.3912" x2="-3.3133" y2="302.2339">
			<stop  offset="0" style="stop-color:#183E72"/>
			<stop  offset="1" style="stop-color:#4EB0DF"/>
		</linearGradient>
		<path class="st14" d="M223.3,307.71c-0.97,0.43-2.79,0.79-4.86,0.79c-5.65,0-9.26-3.43-9.26-8.94c0-5.11,3.5-9.29,10.01-9.29
			c1.43,0,3,0.25,4.15,0.68l-0.86,4.04c-0.64-0.29-1.61-0.54-3.04-0.54c-2.86,0-4.72,2.04-4.68,4.9c0,3.22,2.14,4.9,4.79,4.9
			c1.29,0,2.29-0.21,3.11-0.54L223.3,307.71z"/>
		<linearGradient id="SVGID_16_" gradientUnits="userSpaceOnUse" x1="296.4192" y1="298.5794" x2="-3.3109" y2="302.4221">
			<stop  offset="0" style="stop-color:#183E72"/>
			<stop  offset="1" style="stop-color:#4EB0DF"/>
		</linearGradient>
		<path class="st15" d="M236.38,308.14l-0.32-1.75h-0.11c-1.14,1.39-2.93,2.14-5,2.14c-3.54,0-5.65-2.57-5.65-5.36
			c0-4.54,4.07-6.72,10.26-6.68v-0.25c0-0.93-0.5-2.25-3.18-2.25c-1.79,0-3.68,0.61-4.83,1.32l-1-3.5c1.22-0.68,3.61-1.54,6.79-1.54
			c5.83,0,7.68,3.43,7.68,7.54v6.08c0,1.68,0.07,3.29,0.25,4.25H236.38z M235.73,299.89c-2.86-0.04-5.08,0.64-5.08,2.75
			c0,1.39,0.93,2.07,2.14,2.07c1.36,0,2.47-0.89,2.82-2c0.07-0.29,0.11-0.61,0.11-0.93V299.89z"/>
		<linearGradient id="SVGID_17_" gradientUnits="userSpaceOnUse" x1="296.3711" y1="294.8346" x2="-3.3589" y2="298.6773">
			<stop  offset="0" style="stop-color:#183E72"/>
			<stop  offset="1" style="stop-color:#4EB0DF"/>
		</linearGradient>
		<path class="st16" d="M245.31,282.77h5.43v25.38h-5.43V282.77z"/>
		<linearGradient id="SVGID_18_" gradientUnits="userSpaceOnUse" x1="296.3831" y1="295.7657" x2="-3.3469" y2="299.6084">
			<stop  offset="0" style="stop-color:#183E72"/>
			<stop  offset="1" style="stop-color:#4EB0DF"/>
		</linearGradient>
		<path class="st17" d="M277.88,308.14c-0.5-0.54-1-1.07-1.57-1.72c-1.57,1.22-3.75,2.11-6.61,2.11c-5.83,0-8.4-3.47-8.4-6.83
			c0-3.18,1.82-5.47,4.58-6.9v-0.14c-1.04-1.14-1.82-2.93-1.82-4.65c0-3.04,2.39-6.36,7.22-6.36c3.72,0,6.54,2.18,6.54,5.65
			c0,2.43-1.43,4.5-4.75,6.18l-0.04,0.14c1.39,1.54,2.86,3.29,4.04,4.5c0.96-1.5,1.72-3.72,2.04-5.86h4.86
			c-0.64,3.65-1.86,6.76-4,9.15c1.36,1.54,2.75,3.11,4.25,4.72H277.88z M273.77,303.39c-1.5-1.5-3.47-3.68-5.43-5.9
			c-1,0.72-1.89,1.75-1.89,3.32c0,2.04,1.54,3.79,4,3.79C271.87,304.6,273.05,304.07,273.77,303.39z M268.91,289.52
			c0,1.22,0.57,2.29,1.64,3.47c1.75-1.22,2.65-2.14,2.65-3.54c0-1.14-0.68-2.39-2.11-2.39
			C269.69,287.05,268.91,288.27,268.91,289.52z"/>
		<linearGradient id="SVGID_19_" gradientUnits="userSpaceOnUse" x1="296.8051" y1="328.687" x2="-2.9249" y2="332.5298">
			<stop  offset="0" style="stop-color:#183E72"/>
			<stop  offset="1" style="stop-color:#4EB0DF"/>
		</linearGradient>
		<path class="st18" d="M57.94,343.21c-1,0.5-3.25,1.04-6.18,1.04c-8.33,0-12.62-5.18-12.62-12.05c0-8.22,5.86-12.8,13.15-12.8
			c2.82,0,4.97,0.57,5.93,1.07l-1.11,4.33c-1.11-0.46-2.64-0.89-4.58-0.89c-4.32,0-7.68,2.61-7.68,7.97c0,4.83,2.86,7.86,7.72,7.86
			c1.64,0,3.47-0.36,4.54-0.79L57.94,343.21z"/>
		<linearGradient id="SVGID_20_" gradientUnits="userSpaceOnUse" x1="296.8505" y1="332.2257" x2="-2.8795" y2="336.0684">
			<stop  offset="0" style="stop-color:#183E72"/>
			<stop  offset="1" style="stop-color:#4EB0DF"/>
		</linearGradient>
		<path class="st19" d="M77.92,334.95c0,6.4-4.54,9.33-9.22,9.33c-5.11,0-9.04-3.36-9.04-9.01c0-5.65,3.72-9.26,9.33-9.26
			C74.35,326.02,77.92,329.7,77.92,334.95z M65.27,335.13c0,3,1.25,5.25,3.57,5.25c2.11,0,3.47-2.11,3.47-5.25
			c0-2.61-1-5.25-3.47-5.25C66.23,329.88,65.27,332.56,65.27,335.13z"/>
		<linearGradient id="SVGID_21_" gradientUnits="userSpaceOnUse" x1="296.8522" y1="332.3609" x2="-2.8778" y2="336.2036">
			<stop  offset="0" style="stop-color:#183E72"/>
			<stop  offset="1" style="stop-color:#4EB0DF"/>
		</linearGradient>
		<path class="st20" d="M81.28,331.99c0-2.18-0.07-4.04-0.14-5.58h4.72l0.25,2.39h0.11c0.71-1.11,2.5-2.79,5.4-2.79
			c3.57,0,6.26,2.36,6.26,7.51v10.37h-5.43v-9.69c0-2.25-0.79-3.79-2.75-3.79c-1.5,0-2.39,1.04-2.75,2.04
			c-0.14,0.32-0.21,0.86-0.21,1.36v10.08h-5.43V331.99z"/>
		<linearGradient id="SVGID_22_" gradientUnits="userSpaceOnUse" x1="296.8567" y1="332.7078" x2="-2.8733" y2="336.5505">
			<stop  offset="0" style="stop-color:#183E72"/>
			<stop  offset="1" style="stop-color:#4EB0DF"/>
		</linearGradient>
		<path class="st21" d="M102.19,339.13c1,0.61,3.07,1.32,4.68,1.32c1.64,0,2.32-0.57,2.32-1.47c0-0.89-0.54-1.32-2.57-2
			c-3.61-1.22-5-3.18-4.97-5.25c0-3.25,2.79-5.72,7.11-5.72c2.04,0,3.86,0.46,4.93,1l-0.97,3.75c-0.79-0.43-2.29-1-3.79-1
			c-1.32,0-2.07,0.54-2.07,1.43c0,0.82,0.68,1.25,2.82,2c3.32,1.14,4.72,2.82,4.75,5.4c0,3.25-2.57,5.65-7.58,5.65
			c-2.29,0-4.32-0.5-5.65-1.22L102.19,339.13z"/>
		<linearGradient id="SVGID_23_" gradientUnits="userSpaceOnUse" x1="296.8298" y1="330.6101" x2="-2.9002" y2="334.4528">
			<stop  offset="0" style="stop-color:#183E72"/>
			<stop  offset="1" style="stop-color:#4EB0DF"/>
		</linearGradient>
		<path class="st22" d="M123.82,321.41v5h3.9v4h-3.9v6.33c0,2.11,0.5,3.07,2.14,3.07c0.68,0,1.22-0.07,1.61-0.14l0.04,4.11
			c-0.71,0.29-2,0.46-3.54,0.46c-1.75,0-3.22-0.61-4.07-1.5c-1-1.04-1.5-2.72-1.5-5.18v-7.15h-2.32v-4h2.32v-3.79L123.82,321.41z"/>
		<linearGradient id="SVGID_24_" gradientUnits="userSpaceOnUse" x1="296.8594" y1="332.9202" x2="-2.8706" y2="336.7629">
			<stop  offset="0" style="stop-color:#183E72"/>
			<stop  offset="1" style="stop-color:#4EB0DF"/>
		</linearGradient>
		<path class="st23" d="M130.86,332.16c0-2.57-0.07-4.25-0.14-5.75h4.68l0.18,3.22h0.14c0.89-2.54,3.04-3.61,4.72-3.61
			c0.5,0,0.75,0,1.14,0.07v5.11c-0.39-0.07-0.86-0.14-1.47-0.14c-2,0-3.36,1.07-3.72,2.75c-0.07,0.36-0.11,0.79-0.11,1.22v8.86
			h-5.43V332.16z"/>
		<linearGradient id="SVGID_25_" gradientUnits="userSpaceOnUse" x1="296.8659" y1="333.4289" x2="-2.8641" y2="337.2716">
			<stop  offset="0" style="stop-color:#183E72"/>
			<stop  offset="1" style="stop-color:#4EB0DF"/>
		</linearGradient>
		<path class="st24" d="M160.81,338.28c0,2.29,0.07,4.15,0.14,5.61h-4.72l-0.25-2.47h-0.11c-0.68,1.07-2.32,2.86-5.47,2.86
			c-3.54,0-6.15-2.22-6.15-7.61v-10.26h5.47v9.4c0,2.54,0.82,4.07,2.72,4.07c1.5,0,2.36-1.04,2.72-1.89
			c0.14-0.32,0.18-0.75,0.18-1.18v-10.4h5.47V338.28z"/>
		<linearGradient id="SVGID_26_" gradientUnits="userSpaceOnUse" x1="296.8675" y1="333.5536" x2="-2.8625" y2="337.3963">
			<stop  offset="0" style="stop-color:#183E72"/>
			<stop  offset="1" style="stop-color:#4EB0DF"/>
		</linearGradient>
		<path class="st25" d="M178.29,343.46c-0.97,0.43-2.79,0.79-4.86,0.79c-5.65,0-9.26-3.43-9.26-8.94c0-5.11,3.5-9.29,10.01-9.29
			c1.43,0,3,0.25,4.15,0.68l-0.86,4.04c-0.64-0.29-1.61-0.54-3.04-0.54c-2.86,0-4.72,2.04-4.68,4.9c0,3.22,2.14,4.9,4.79,4.9
			c1.29,0,2.29-0.21,3.11-0.54L178.29,343.46z"/>
		<linearGradient id="SVGID_27_" gradientUnits="userSpaceOnUse" x1="296.8403" y1="331.4321" x2="-2.8897" y2="335.2748">
			<stop  offset="0" style="stop-color:#183E72"/>
			<stop  offset="1" style="stop-color:#4EB0DF"/>
		</linearGradient>
		<path class="st26" d="M187.94,321.41v5h3.9v4h-3.9v6.33c0,2.11,0.5,3.07,2.14,3.07c0.68,0,1.22-0.07,1.61-0.14l0.04,4.11
			c-0.71,0.29-2,0.46-3.54,0.46c-1.75,0-3.22-0.61-4.07-1.5c-1-1.04-1.5-2.72-1.5-5.18v-7.15h-2.32v-4h2.32v-3.79L187.94,321.41z"/>
		<linearGradient id="SVGID_28_" gradientUnits="userSpaceOnUse" x1="296.8231" y1="330.0889" x2="-2.9069" y2="333.9315">
			<stop  offset="0" style="stop-color:#183E72"/>
			<stop  offset="1" style="stop-color:#4EB0DF"/>
		</linearGradient>
		<path class="st27" d="M200.6,321.55c0,1.5-1.14,2.72-2.93,2.72c-1.72,0-2.86-1.22-2.82-2.72c-0.04-1.57,1.11-2.75,2.86-2.75
			C199.45,318.8,200.56,319.98,200.6,321.55z M194.98,343.89v-17.48h5.43v17.48H194.98z"/>
		<linearGradient id="SVGID_29_" gradientUnits="userSpaceOnUse" x1="296.8742" y1="334.0731" x2="-2.8558" y2="337.9158">
			<stop  offset="0" style="stop-color:#183E72"/>
			<stop  offset="1" style="stop-color:#4EB0DF"/>
		</linearGradient>
		<path class="st28" d="M222.04,334.95c0,6.4-4.54,9.33-9.22,9.33c-5.11,0-9.04-3.36-9.04-9.01c0-5.65,3.72-9.26,9.33-9.26
			C218.47,326.02,222.04,329.7,222.04,334.95z M209.39,335.13c0,3,1.25,5.25,3.57,5.25c2.11,0,3.47-2.11,3.47-5.25
			c0-2.61-1-5.25-3.47-5.25C210.35,329.88,209.39,332.56,209.39,335.13z"/>
		<linearGradient id="SVGID_30_" gradientUnits="userSpaceOnUse" x1="296.8759" y1="334.2083" x2="-2.8541" y2="338.0509">
			<stop  offset="0" style="stop-color:#183E72"/>
			<stop  offset="1" style="stop-color:#4EB0DF"/>
		</linearGradient>
		<path class="st29" d="M225.4,331.99c0-2.18-0.07-4.04-0.14-5.58h4.72l0.25,2.39h0.11c0.71-1.11,2.5-2.79,5.4-2.79
			c3.57,0,6.26,2.36,6.26,7.51v10.37h-5.43v-9.69c0-2.25-0.79-3.79-2.75-3.79c-1.5,0-2.39,1.04-2.75,2.04
			c-0.14,0.32-0.21,0.86-0.21,1.36v10.08h-5.43V331.99z"/>
	</g>
</g>
</svg>
